<?xml version="1.0" encoding="utf-8"?>
<!-- Generator: Adobe Illustrator 27.2.0, SVG Export Plug-In . SVG Version: 6.00 Build 0)  -->
<svg version="1.1" id="Light" xmlns="http://www.w3.org/2000/svg" xmlns:xlink="http://www.w3.org/1999/xlink" x="0px" y="0px"
	 viewBox="0 0 3000 3000" style="enable-background:new 0 0 3000 3000;" xml:space="preserve">
<style type="text/css">
	.st0{fill:#BECEE2;}
	.st1{fill:#535A63;}
	.st2{fill:#FFFFFF;}
	.st3{fill:#9CA9BA;}
	.st4{fill:#D1DEF0;}
	.st5{fill:#ADB9C8;}
	.st6{fill:#E9F3FF;}
	.st7{fill:#7A8593;}
</style>
<g>
	<g>
		<polygon class="st0" points="2453.1,1866.3 2485.5,1970.1 2649.4,1972.6 2858.2,1818.2 2834.1,1720.2 		"/>
		<path class="st1" d="M2649.4,1977.6C2649.3,1977.6,2649.3,1977.6,2649.4,1977.6l-164-2.5c-2.2,0-4.1-1.4-4.7-3.5l-32.4-103.8
			c-0.8-2.5,0.5-5.2,3-6.2l381-146.1c1.3-0.5,2.8-0.4,4.1,0.2c1.3,0.7,2.2,1.8,2.5,3.2l24.1,98c0.5,2-0.3,4-1.9,5.2l-208.8,154.4
			C2651.5,1977.2,2650.4,1977.6,2649.4,1977.6z M2489.2,1965.1l158.6,2.4l204.8-151.4l-21.9-89.2l-371.3,142.4L2489.2,1965.1z"/>
	</g>
	<g>
		<polygon class="st2" points="2434,1843.9 2446.2,1888.4 2629.9,1892.9 2848.2,1736.8 2834.1,1687.9 		"/>
		<path class="st1" d="M2629.9,1897.9c0,0-0.1,0-0.1,0l-183.7-4.5c-2.2-0.1-4.1-1.5-4.7-3.7l-12.2-44.4c-0.7-2.5,0.6-5,3-6
			l400.1-156.1c1.3-0.5,2.8-0.4,4,0.2c1.3,0.6,2.2,1.7,2.6,3.1l14.1,49c0.6,2-0.2,4.2-1.9,5.5L2632.8,1897
			C2632,1897.6,2630.9,1897.9,2629.9,1897.9z M2450,1883.5l178.3,4.4l214.1-153l-11.6-40.3L2440,1846.9L2450,1883.5z"/>
	</g>
	<g>
		<polygon class="st2" points="2434,1843.9 2616.6,1845.6 2834.1,1687.9 2664.3,1691.9 		"/>
		<path class="st1" d="M2616.6,1850.6C2616.6,1850.6,2616.5,1850.6,2616.6,1850.6l-182.6-1.7c-2.2,0-4.1-1.5-4.7-3.6
			c-0.6-2.1,0.2-4.4,2-5.6l230.3-152c0.8-0.5,1.7-0.8,2.6-0.8l169.8-4.1c2.2,0,4.2,1.3,4.9,3.4s0,4.4-1.8,5.6l-217.5,157.7
			C2618.7,1850.2,2617.6,1850.6,2616.6,1850.6z M2450.4,1839.1l164.6,1.5l203.2-147.3l-152.3,3.7L2450.4,1839.1z"/>
	</g>
	<g>
		<polygon class="st2" points="2712.5,1816.4 2726.4,1857.5 2756,1833.6 2745.5,1792.5 		"/>
		<path class="st1" d="M2726.4,1862.5c-0.5,0-0.9-0.1-1.4-0.2c-1.6-0.5-2.8-1.6-3.3-3.2l-13.9-41.1c-0.7-2.1,0-4.4,1.8-5.7l33-23.9
			c1.3-1,3.1-1.2,4.6-0.7c1.6,0.6,2.7,1.9,3.1,3.5l10.5,41.1c0.5,1.9-0.2,3.9-1.7,5.1l-29.6,23.9
			C2728.6,1862.1,2727.5,1862.5,2726.4,1862.5z M2718.4,1818.3l10.4,30.8l21.5-17.4l-7.9-30.9L2718.4,1818.3z"/>
	</g>
	<g>
		<path class="st2" d="M1507.8,1756.7c0,0,142.4,325.6,258,464.7c115.6,139.1,467.8,323.3,467.8,323.3l87.7-129.7
			c0,0-158.1-108.7-241.2-204.5c-83.1-95.7-161.8-240.2-153.2-247.4c8.7-7.2,114.1,116.4,209.2,182.4
			c121.7,84.5,428.6,129.1,428.6,129.1l55.5-148.9c0,0-231.2-121-301.6-166.2c-70.4-45.2-168-186-202.3-231.2
			c-34.3-45.2-95.7-117.4-95.7-117.4L1507.8,1756.7z"/>
		<path class="st1" d="M2233.6,2549.7c-0.8,0-1.6-0.2-2.3-0.6c-0.9-0.5-89.4-46.9-190.9-109.7c-136.5-84.5-230.2-156.8-278.5-214.9
			c-60-72.2-127.2-195.1-173-285.4c-49.5-97.8-85.4-179.6-85.8-180.4c-0.6-1.3-0.6-2.8,0.1-4.1c0.6-1.3,1.8-2.3,3.2-2.7l512.7-145.8
			c1.9-0.5,3.9,0.1,5.2,1.6c0.6,0.7,61.9,72.9,95.9,117.6c5,6.5,11.3,15.1,18.5,24.9c43,58.3,123,166.9,182.5,205.1
			c69.4,44.5,298.9,164.7,301.2,165.9c2.2,1.2,3.2,3.8,2.4,6.2l-55.5,148.9c-0.8,2.2-3.1,3.5-5.4,3.2c-0.8-0.1-78-11.4-169.1-32.9
			c-122.6-29-210.6-61.6-261.6-97c-54.3-37.7-111.3-93.4-152.9-134.1c-18.9-18.5-38.3-37.5-47.9-44.8c4,12.4,18.2,42.5,44.5,86.2
			c33.4,55.6,72.4,110.4,107,150.3c81.7,94.1,238.7,202.5,240.3,203.6c2.3,1.6,2.8,4.6,1.3,6.9l-87.7,129.7
			C2236.7,2548.9,2235.2,2549.7,2233.6,2549.7z M1514.7,1759.9c8.7,19.6,41,91.3,83.2,174.7c45.5,89.9,112.3,212,171.7,283.5
			c59.3,71.3,182.8,155,276,212.7c89.1,55.1,168.1,97.6,186.3,107.3l82.4-121.9c-25.4-17.8-163-115.9-238.1-202.5
			c-34.9-40.2-74.2-95.4-107.8-151.4c-22.4-37.4-48.2-85.5-47.2-98.1c0.2-2.7,1.4-4.2,2.4-5.1c5-4.1,11.9,0.5,24.7,11.9
			c9.9,8.9,23.4,22,39,37.2c41.4,40.4,98,95.8,151.6,133c62.2,43.2,174.8,75.7,258.2,95.4c78.9,18.6,147.3,29.6,164.2,32.2l52.5-141
			c-30.7-16.1-233.3-122.8-298.1-164.3c-61.1-39.2-141.8-148.7-185.1-207.5c-7.3-9.8-13.5-18.4-18.4-24.8
			c-30.3-39.9-82.5-101.7-93.5-114.7L1514.7,1759.9z"/>
	</g>
	<g>
		<path class="st2" d="M1357.4,1362.7c0,0-155.3,16.2-218.1,16.2c-62.8,0-212.2-77.3-212.2-77.3L898,1436.8
			c0,0,119.1,65.2,229.7,94.1c110.7,29,305,0,305,0L1357.4,1362.7z"/>
		<path class="st1" d="M1255.3,1548.9c-52.5,0-95.7-4.4-128.9-13.1c-110-28.8-229.7-93.9-230.9-94.6c-1.9-1.1-3-3.3-2.5-5.4
			l29.2-135.2c0.3-1.5,1.3-2.8,2.8-3.5c1.4-0.7,3-0.6,4.4,0.1c1.5,0.8,149.1,76.7,209.9,76.7c61.8,0,216-16,217.5-16.2
			c2.1-0.2,4.2,1,5.1,2.9l75.3,168.3c0.6,1.4,0.6,3.1-0.2,4.4c-0.8,1.4-2.1,2.3-3.6,2.5c-0.5,0.1-49.5,7.3-111.4,10.9
			C1298.3,1548.2,1276.1,1548.9,1255.3,1548.9z M903.6,1434.2c19.9,10.6,126.7,66.1,225.3,91.9c97.1,25.4,261.7,5.5,296.4,0.8
			l-71.1-158.9c-23.7,2.4-158,15.8-215,15.8c-56.9,0-180.1-60.4-208.7-74.8L903.6,1434.2z"/>
	</g>
	<g>
		<path class="st2" d="M2538.3,1727.3l124.6-74.9c17.4-10.5,40-3.9,49.1,14.3l15.3,30.5c3.8,7.5,1.5,16.7-5.4,21.6l0,0
			c-8.3,5.9-19.9,3.2-24.8-5.8l-7.6-14c-4.9-9-16.3-12.2-25.1-7.1l-92.6,53.6c-8.4,4.9-11.5,15.4-7.1,24.1l9.2,18
			c4.1,8.1,1.2,17.9-6.6,22.5l-2.4,1.4c-8.5,5-19.5,1.7-23.8-7.1l-15.8-31.7C2517,1756.4,2522.7,1736.6,2538.3,1727.3z"/>
		<path class="st1" d="M2556.1,1818.8c-2.1,0-4.2-0.3-6.3-0.9c-5.8-1.7-10.7-5.9-13.4-11.3l-15.8-31.7c-9.2-18.5-2.5-41.3,15.1-51.9
			l124.6-74.9c9.5-5.7,21-7.2,31.6-4.1c10.6,3.1,19.6,10.5,24.5,20.4l15.3,30.5c4.9,9.8,2,21.6-7,27.9c-5.1,3.6-11.6,4.9-17.7,3.4
			c-6.1-1.4-11.3-5.4-14.3-10.9l-7.6-14c-1.7-3.2-4.6-5.4-8-6.4c-3.5-1-7.1-0.5-10.2,1.3l-92.6,53.6c-6.1,3.5-8.4,11.2-5.2,17.5
			l9.2,18c5.3,10.4,1.6,23.2-8.5,29.1l-2.4,1.4C2563.8,1817.8,2560,1818.8,2556.1,1818.8z M2680.8,1652.4c-5.3,0-10.6,1.4-15.3,4.3
			l-124.6,74.9c0,0,0,0,0,0c-13.2,8-18.2,25-11.3,38.9l15.8,31.7c1.5,3,4.1,5.2,7.3,6.2c3.2,1,6.6,0.6,9.5-1.1l2.4-1.4
			c5.5-3.2,7.6-10.2,4.7-15.9l-9.2-18c-5.6-11-1.6-24.5,9.1-30.7l92.6-53.6c5.5-3.2,11.8-4,17.9-2.3c6.1,1.7,11.1,5.7,14.1,11.3
			l7.6,14c1.7,3.1,4.4,5.2,7.8,6c3.4,0.8,6.8,0.1,9.7-1.9c4.9-3.5,6.5-9.9,3.8-15.2l-15.3-30.5c-3.8-7.5-10.3-13-18.4-15.3
			C2686.4,1652.8,2683.6,1652.4,2680.8,1652.4z M2538.3,1727.3L2538.3,1727.3L2538.3,1727.3z"/>
	</g>
	<g>
		<path class="st2" d="M651.8,2605.7l-3.5-93.7c0,0-0.5,0-1.5,0.1c1-0.1,25.7-3,51.4-33.6c27-32,59.6-99.6,61-239.5
			c1-97.3-27.4-178.5-84.5-241.4c-43.3-47.7-88-67-88.5-67.2l0.3,0.1l35.5-86.8c2.5,1,61.3,25.6,118.5,86.9
			c33.4,35.8,59.8,77,78.6,122.6c23.2,56.3,34.6,119.1,33.9,186.7c-1.5,142.4-32.5,246.4-92.2,309.2c-20.9,22-44.6,38.1-70.3,47.8
			C670.6,2604.5,655.9,2605.6,651.8,2605.7z"/>
		<path class="st1" d="M651.8,2610.7c-1.3,0-2.5-0.5-3.4-1.3c-1-0.9-1.5-2.2-1.6-3.5l-3.3-90.2c-0.9-0.8-1.4-1.9-1.6-3.1
			c-0.3-2.7,1.7-5.2,4.4-5.5c0,0,0,0,0,0l0,0c8.1-0.8,28.5-8.6,48.1-31.8c26.5-31.4,58.4-97.9,59.8-236.4c1-96-27-176-83.2-237.9
			c-42.3-46.6-86.3-65.7-86.7-65.9c-2.5-1.1-3.7-4-2.6-6.5c0.2-0.5,0.5-1,0.9-1.4l34.9-85.3c0.5-1.2,1.5-2.2,2.7-2.7
			c1.2-0.5,2.6-0.5,3.8,0c2.5,1,62.4,26,120.3,88.1c33.8,36.2,60.5,78,79.5,124.1c23.5,56.9,35,120.4,34.3,188.6
			c-1.5,143.7-33,248.8-93.6,312.6c-21.4,22.6-45.7,39.1-72.2,49.1c-20.7,7.8-36.1,8.9-40.4,9.1
			C651.9,2610.7,651.9,2610.7,651.8,2610.7z M653.5,2515.8l3.1,84.5c6.5-0.7,17.9-2.7,32.2-8.1c25-9.5,48.1-25.1,68.5-46.6
			c58.8-61.9,89.4-164.7,90.8-305.8c0.7-66.9-10.6-129-33.5-184.7c-18.6-45-44.7-85.8-77.6-121.1c-48-51.5-97.1-76.7-112.2-83.6
			l-31.8,77.7c12.8,6.4,49.8,26.8,85.5,66.2c58,63.8,86.8,146.2,85.8,244.8c-1.5,141.4-34.6,210-62.2,242.7
			C684.1,2503.1,665.2,2512.6,653.5,2515.8z"/>
	</g>
	<g>
		<path class="st3" d="M861.1,679.8v-0.4c0,0.1,0,0.1-0.1,0.2c0-0.1,0-0.1-0.1-0.2v0.4c-4.7,17.1-15.6,29.3-32.7,36.7
			c17.1,7.4,28,19.6,32.7,36.7v0.4c0-0.1,0-0.1,0.1-0.2c0,0.1,0,0.1,0.1,0.2v-0.4c4.7-17.1,15.6-29.3,32.7-36.7
			C876.7,709.1,865.8,696.9,861.1,679.8z"/>
	</g>
	<g>
		<path class="st3" d="M1842.9,2535.5v-0.4c0,0.1,0,0.1-0.1,0.2c0-0.1,0-0.1-0.1-0.2v0.4c-4.7,17.1-15.6,29.3-32.7,36.7
			c17.1,7.4,28,19.6,32.7,36.7v0.4c0-0.1,0-0.1,0.1-0.2c0,0.1,0,0.1,0.1,0.2v-0.4c4.7-17.1,15.6-29.3,32.7-36.7
			C1858.5,2564.8,1847.6,2552.6,1842.9,2535.5z"/>
	</g>
	<g>
		<path class="st3" d="M1507.8,466.3V466c0,0.1,0,0.1-0.1,0.2c0-0.1,0-0.1-0.1-0.2v0.4c-4.7,17.1-15.6,29.3-32.7,36.7
			c17.1,7.4,28,19.6,32.7,36.7v0.4c0-0.1,0-0.1,0.1-0.2c0,0.1,0,0.1,0.1,0.2v-0.4c4.7-17.1,15.6-29.3,32.7-36.7
			C1523.4,495.7,1512.5,483.4,1507.8,466.3z"/>
	</g>
	<g>
		<path class="st3" d="M2550.9,1226v-0.4c0,0.1,0,0.1-0.1,0.2c0-0.1,0-0.1-0.1-0.2v0.4c-4.7,17.1-15.6,29.3-32.7,36.7
			c17.1,7.4,28,19.6,32.7,36.7v0.4c0-0.1,0-0.1,0.1-0.2c0,0.1,0,0.1,0.1,0.2v-0.4c4.7-17.1,15.6-29.3,32.7-36.7
			C2566.5,1255.3,2555.6,1243.1,2550.9,1226z"/>
	</g>
	<g>
		<path class="st3" d="M2662.9,687.4v-0.4c0,0.1,0,0.1-0.1,0.2c0-0.1,0-0.1-0.1-0.2v0.4c-4.7,17.1-15.6,29.3-32.7,36.7
			c17.1,7.4,28,19.6,32.7,36.7v0.4c0-0.1,0-0.1,0.1-0.2c0,0.1,0,0.1,0.1,0.2v-0.4c4.7-17.1,15.6-29.3,32.7-36.7
			C2678.5,716.7,2667.6,704.5,2662.9,687.4z"/>
	</g>
	<g>
		<path class="st3" d="M1165.4,1905.3v-0.4c0,0.1,0,0.1-0.1,0.2c0-0.1,0-0.1-0.1-0.2v0.4c-4.7,17.1-15.6,29.3-32.7,36.7
			c17.1,7.4,28,19.6,32.7,36.7v0.4c0-0.1,0-0.1,0.1-0.2c0,0.1,0,0.1,0.1,0.2v-0.4c4.7-17.1,15.6-29.3,32.7-36.7
			C1181,1934.6,1170.1,1922.4,1165.4,1905.3z"/>
	</g>
	<g>
		<path class="st3" d="M1080.4,336v-0.7c0,0.1-0.1,0.2-0.1,0.4c0-0.1-0.1-0.2-0.1-0.4v0.7c-9.4,34.2-31.2,58.6-65.3,73.3
			c34.1,14.7,55.9,39.1,65.3,73.3v0.7c0-0.1,0.1-0.2,0.1-0.4c0,0.1,0.1,0.2,0.1,0.4v-0.7c9.4-34.2,31.2-58.6,65.3-73.3
			C1111.6,394.7,1089.9,370.2,1080.4,336z"/>
	</g>
	<g>
		<path class="st3" d="M2409.2,945.1v-0.7c0,0.1-0.1,0.2-0.1,0.4c0-0.1-0.1-0.2-0.1-0.4v0.7c-9.4,34.2-31.2,58.6-65.3,73.3
			c34.1,14.7,55.9,39.1,65.3,73.3v0.7c0-0.1,0.1-0.2,0.1-0.4c0,0.1,0.1,0.2,0.1,0.4v-0.7c9.4-34.2,31.2-58.6,65.3-73.3
			C2440.4,1003.7,2418.6,979.3,2409.2,945.1z"/>
	</g>
	<g>
		<g>
			<circle class="st4" cx="1299" cy="2596" r="271.6"/>
		</g>
		<g>
			<path class="st5" d="M1352.6,2329.7c1.6,40.8-1.1,83.4-14.7,112.1c-34.1,71.9-87.1,94.6-208.2,154.3
				c-49.6,24.4-69.9,69.9-76.6,115.2c19.3,41.1,48.6,76.6,84.8,103.4c8.2-34.2,23.6-72.2,52.4-104.1c71.9-79.5,181.7-3.8,308.7-68.1
				c33.7-17.1,55.7-45.3,69.9-77.6C1555.4,2447.3,1467,2352.6,1352.6,2329.7z"/>
		</g>
	</g>
	<g>
		<g>
			
				<ellipse transform="matrix(0.7071 -0.7071 0.7071 0.7071 344.0088 1755.8933)" class="st6" cx="2291.6" cy="462.7" rx="225.1" ry="225.1"/>
		</g>
		<g>
			<path class="st5" d="M1950.7,662.7c-20,0-31.8-4.4-35.7-13.5c-5.7-12.9,6.4-31.4,36.9-56.5c27.1-22.3,68.3-49.3,119.2-78.1
				c2.4-1.4,5.5-0.5,6.8,1.9c1.4,2.4,0.5,5.5-1.9,6.8c-50.4,28.5-91.1,55.1-117.8,77.1c-36.6,30.1-35.4,41.9-34.1,44.7
				c1.2,2.7,7,8.9,35.2,7.2c21.9-1.3,51.8-6.8,88.8-16.6c76.5-20.2,174.3-55.8,275.5-100.3c101.2-44.5,193.6-92.5,260.1-135.3
				c32.2-20.7,56.5-38.9,72.2-54.2c20.3-19.7,19.7-28.2,18.5-30.9c-1.3-2.8-8.9-11.6-55.2-5.2c-33.7,4.7-80.2,16.4-134.5,33.9
				c-2.6,0.8-5.4-0.6-6.3-3.2c-0.8-2.6,0.6-5.4,3.2-6.3c54.8-17.7,101.9-29.6,136.2-34.3c38.6-5.3,60.1-1.7,65.7,11.1
				c4.5,10.3-2.2,24.1-20.7,42.1c-16.2,15.8-41,34.4-73.8,55.5c-66.9,43-159.8,91.3-261.5,136c-101.7,44.7-200,80.5-277,100.8
				c-37.6,9.9-68.1,15.6-90.7,16.9C1956.7,662.6,1953.6,662.7,1950.7,662.7z"/>
		</g>
	</g>
	<g>
		<path class="st2" d="M1664.3,1272.6c-127.2,27.1-306.9,90.1-306.9,90.1s0,130,52.1,263.2c52.1,133.2,121.3,266.2,121.3,266.2
			s58.8-69.5,214.6-141.7c134.1-62.1,343.2-87.1,343.2-87.1s-49.5-69.7-74.7-106.9c-29.2-43.1-43.3-82.5-43.3-82.5
			s161.9,10,289.6,40.9c127.7,30.9,198.6,73.5,198.6,73.5l37.4-81.2c0,0-101.9-107-230.8-165.1
			C2136.5,1284,1844.6,1234.1,1664.3,1272.6z"/>
		<path class="st1" d="M1530.9,1897c-0.2,0-0.4,0-0.6,0c-1.7-0.2-3.1-1.2-3.9-2.7c-0.7-1.3-70-134.8-121.6-266.7
			c-51.9-132.5-52.5-263.7-52.5-265c0-2.1,1.3-4,3.3-4.7c1.8-0.6,181.5-63.3,307.5-90.2c82.7-17.7,196.9-18.2,321.5-1.5
			c110.7,14.8,216.4,41.4,282.7,71.3c128.4,57.8,231.4,165.1,232.4,166.2c1.4,1.5,1.8,3.7,0.9,5.5l-37.4,81.2
			c-0.6,1.3-1.7,2.3-3.1,2.7c-1.4,0.4-2.8,0.2-4-0.5c-24.4-14.6-96.9-48.6-197.2-72.9c-109.9-26.6-247-37.8-280.9-40.2
			c5.4,13.2,18.7,42.8,39.9,74.1c24.9,36.8,74.2,106.1,74.7,106.8c1,1.4,1.2,3.3,0.5,4.9c-0.7,1.6-2.2,2.7-4,2.9
			c-2.1,0.2-209.9,25.6-341.7,86.6c-152.8,70.7-212.3,139.7-212.9,140.4C1533.8,1896.4,1532.4,1897,1530.9,1897z M1362.5,1366.2
			c0.5,21.7,5.3,139.2,51.7,257.8c45,115.1,103.5,231.4,117.9,259.4c6.9-7.2,21.2-21,44.6-39.1c31.4-24.2,85.8-61,166.7-98.5
			c118.2-54.7,296.1-81,336.4-86.4c-13.1-18.5-49.6-70.2-70-100.2c-29.2-43.1-43.3-81.9-43.9-83.6c-0.6-1.6-0.3-3.3,0.7-4.7
			c1-1.3,2.6-2.1,4.3-2c1.6,0.1,163.9,10.3,290.5,41c95.7,23.2,166.6,55.2,195.2,71.3l33.7-73.1c-16-16.2-111-109.4-226.9-161.5
			c-65.5-29.5-170.2-55.8-279.9-70.5c-123.5-16.5-236.5-16-318.1,1.4l0,0C1549.5,1302.2,1387.9,1357.4,1362.5,1366.2z"/>
	</g>
	<g>
		<path class="st0" d="M2228.5,2457.8c26.7-43.7,37.9-95.2,49.7-95.2c11.7,0,103.4,73,119.4,75.1c16,2.1,83.2,42.7,87.5,44.8
			c4.3,2.1,20.3,35.7,20.3,62.1s-1.1,45.6,0,48.8s17.1,102.4,14.9,147.2c-2.1,44.8-15.9,68.7-21.2,74c-5.3,5.3-56.3,16.6-69.1,14.5
			c-12.8-2.1-52.6-29.4-70.8-83.2c-17.6-51.9-16-92.8-26.7-110.9c-50.1-19.2-167.1-103.7-167.1-103.7S2201.8,2501.5,2228.5,2457.8z"
			/>
		<path class="st1" d="M2434,2834.4c-1.8,0-3.5-0.1-4.9-0.3c-14.2-2.4-55.8-30.6-74.7-86.5c-9.3-27.4-13.3-51.6-16.5-71.2
			c-2.7-16.3-4.8-29.3-9-37.4c-51-20.4-161.8-100.2-166.5-103.6c-1.3-0.9-2-2.3-2.1-3.9s0.6-3,1.8-4c0.4-0.3,36.1-29.9,62-72.3
			c0,0,0,0,0,0c12.1-19.8,21-41.5,28.3-58.9c10.3-25,16-38.7,25.7-38.7c6.6,0,22.3,10.5,59,36.3c22.8,16,54.1,38,61,38.9
			c12.4,1.7,48.2,21.7,81.6,41c3.6,2.1,6.8,3.9,7.4,4.3c5.5,2.8,12.2,19.6,14.2,24.7c3.3,8.7,8.9,25.8,8.9,41.9
			c0,10.4-0.2,19.8-0.3,27.3c-0.2,9.3-0.3,18.2,0.1,20c1.7,5.9,17.3,104.4,15.1,148.9c-2.2,47.1-17.1,71.8-22.6,77.3
			c-4.5,4.5-23.4,9.1-34.2,11.4C2462.5,2830.9,2444.9,2834.4,2434,2834.4z M2173.4,2531c23.1,16.4,117.8,82.9,160.8,99.4
			c1.1,0.4,1.9,1.2,2.5,2.1c5.6,9.5,8,24,11,42.3c3.2,19.2,7.1,43,16.1,69.6c18.5,54.6,57.9,78.3,66.9,79.8
			c12.2,2,59.8-9.2,64.8-13.1c4.5-4.6,17.6-27.1,19.7-70.7c2-42.9-13.2-139.5-14.7-145.5c-0.8-2.7-0.8-8.1-0.5-23.1
			c0.1-7.5,0.3-16.8,0.3-27.1c0-23.6-13.9-53.8-17.9-57.9c-1.1-0.6-3.3-1.9-7.6-4.4c-16.3-9.4-65.8-38.1-77.9-39.8
			c-8.8-1.2-30.6-16.1-65.5-40.6c-20-14-47.2-33.2-53.2-34.4c-3.8,1.7-10.8,18.8-16.5,32.5c-7.3,17.7-16.5,39.8-29,60.2
			C2211.5,2495.3,2184.4,2521.2,2173.4,2531z M2500.5,2595C2500.5,2595,2500.5,2595,2500.5,2595
			C2500.5,2595,2500.5,2595,2500.5,2595z M2510,2591.9c0,0,0,0.1,0,0.1C2510,2592,2510,2591.9,2510,2591.9z M2482.3,2486.7
			C2482.3,2486.7,2482.3,2486.7,2482.3,2486.7C2482.3,2486.7,2482.3,2486.7,2482.3,2486.7z M2278.4,2367.6"/>
	</g>
	<g>
		<path class="st0" d="M2556.4,2073.2c-14.9,79.7-34.6,151.5-66.4,203.1c0,0,182.5,50.5,185.1,48.7c2.6-1.8,54.6,100,80.9,128
			c26.3,28,66.4,45.6,83.9,39.5c9.2-3.2,36.6-17.7,34-37s-49.2-167.7-51.3-176.9c-6.6-29.3-29.3-109.5-38.1-127
			s-30.7-40.3-55.2-46.4c-24.5-6.1-56.1-5.3-78-5.3C2629.5,2099.9,2556.4,2073.2,2556.4,2073.2z"/>
		<path class="st1" d="M2831.6,2498.8c-22.1,0-56.1-17.5-79.3-42.3c-16.9-18-42.9-63.6-62-97c-7.2-12.6-14.6-25.6-17.5-29.6
			c-4-0.6-11.8-2.5-29.1-6.9c-15.5-4-36.9-9.6-63.6-16.9c-45.4-12.3-91.1-24.9-91.6-25c-1.5-0.4-2.7-1.5-3.3-3
			c-0.6-1.5-0.4-3.1,0.4-4.5c27.4-44.4,48.3-108.4,65.7-201.4c0.3-1.4,1.2-2.7,2.4-3.4c1.3-0.7,2.8-0.9,4.2-0.4
			c0.7,0.3,72.6,26.4,93.3,26.4c2.3,0,4.8,0,7.3,0c22-0.1,49.3-0.2,71.9,5.4c25.5,6.4,48.7,29.5,58.4,49
			c9.1,18.1,31.9,99.1,38.5,128.2c0.6,2.8,6.2,21.3,12.8,42.8c19.4,63.8,36.9,122.1,38.6,134.6c3.1,22.9-26.6,38.7-37.3,42.4
			C2838.7,2498.3,2835.3,2498.8,2831.6,2498.8z M2675.2,2320c0.4,0,0.8,0,1.2,0.1c3.2,0.8,4.1,1.8,22.7,34.4
			c17.7,31,44.5,77.9,60.6,95.1c11.9,12.7,27.8,24.1,43.7,31.4c14.7,6.8,27.7,9.3,34.9,6.8c8.9-3.1,32.8-16.4,30.7-31.6
			c-1.7-12.7-24.6-88-38.2-133c-7.8-25.8-12.3-40.5-12.9-43.5c-6.5-28.9-29.2-109-37.7-125.9c-8.5-17.1-29.6-38.2-51.9-43.8
			c-21.3-5.3-48-5.2-69.4-5.1c-2.6,0-5,0-7.4,0c-19.2,0-73.5-18.7-91.2-25c-16.7,87.3-36.7,149.1-62.6,193.3
			c68.6,19,167.2,45.7,176.9,46.8C2674.8,2320,2675,2320,2675.2,2320z M2672.3,2320.8C2672.3,2320.8,2672.3,2320.8,2672.3,2320.8
			C2672.3,2320.8,2672.3,2320.8,2672.3,2320.8z M2672.3,2320.8C2672.3,2320.8,2672.3,2320.8,2672.3,2320.8
			C2672.3,2320.8,2672.3,2320.8,2672.3,2320.8z M2674.9,2320.1C2674.9,2320.1,2674.9,2320.1,2674.9,2320.1
			C2674.9,2320.1,2674.9,2320.1,2674.9,2320.1z"/>
	</g>
	<g>
		<path class="st2" d="M861,1205.2c0,0-16,123.6-8.6,189.1s14.1,115.4,1.7,129.3c-12.4,13.9-73.8,29.7-98.3,20.2
			c-24.6-9.5-22.9-120.2-22.1-179.9c0.8-59.7,30.3-170.2,30.3-170.2L861,1205.2z"/>
		<path class="st1" d="M775.6,1551.7c-7.7,0-15.4-0.9-21.5-3.3c-12.9-5-20.4-28.8-23.7-74.9c-2.6-36.3-2-78.2-1.6-108.8l0-0.9
			c0.3-25.1,5.6-61.6,15.6-108.4c7.4-34.8,14.8-62.7,14.9-63c0.6-2.4,3-4,5.4-3.7l97,11.5c1.3,0.2,2.5,0.8,3.4,1.9
			c0.8,1.1,1.2,2.4,1,3.7c-0.2,1.2-15.8,123.8-8.6,187.9c0.5,4.7,1.1,9.3,1.6,13.8c7.2,63.1,11.9,104.8-1.1,119.4
			c-8,9-29.7,16.5-47.2,20.4C803.4,1549,789.3,1551.7,775.6,1551.7z M767.7,1199.2c-5.3,20.7-28.3,112.9-29,164.8l0,0.9
			c-0.4,30.4-1,72.1,1.6,108c3.9,55.3,13.4,64.8,17.3,66.3c23.1,8.9,82-6.7,92.8-18.8c10-11.3,4.7-57.8-1.4-111.6
			c-0.5-4.5-1-9.1-1.6-13.8c-3.1-27.5-2.6-67.9,1.5-120.1c2.3-29.7,5.2-54.9,6.5-65.2L767.7,1199.2z"/>
	</g>
	<g>
		<path class="st2" d="M908.3,1233.2l-252-14.8v-107.2l252-14.8c16.1-0.9,29.6,11.8,29.6,28v81
			C938,1221.3,924.4,1234.1,908.3,1233.2z"/>
		<path class="st1" d="M910,1238.2c-0.7,0-1.3,0-2-0.1l-252-14.8c-2.6-0.2-4.7-2.3-4.7-5v-107.2c0-2.6,2.1-4.8,4.7-5l252-14.8
			c9.2-0.6,17.9,2.6,24.6,8.9c6.7,6.3,10.4,14.8,10.4,24v81c0,9.2-3.7,17.7-10.4,24C926.4,1235.1,918.5,1238.2,910,1238.2z
			 M661.4,1213.6l247.2,14.6l0,0c6.4,0.4,12.5-1.8,17.1-6.2c4.7-4.4,7.2-10.3,7.2-16.7v-81c0-6.4-2.6-12.3-7.2-16.7
			c-4.7-4.4-10.7-6.6-17.1-6.2l-247.2,14.6V1213.6z"/>
	</g>
	<g>
		<path class="st2" d="M640.8,1233.1h-5.4c-8.6,0-15.5-7-15.5-15.5v-105.6c0-8.6,7-15.5,15.5-15.5h5.4c8.6,0,15.5,7,15.5,15.5v105.6
			C656.4,1226.1,649.4,1233.1,640.8,1233.1z"/>
		<path class="st1" d="M640.8,1238.1h-5.4c-11.3,0-20.5-9.2-20.5-20.5v-105.6c0-11.3,9.2-20.5,20.5-20.5h5.4
			c11.3,0,20.5,9.2,20.5,20.5v105.6C661.4,1228.9,652.2,1238.1,640.8,1238.1z M635.5,1101.3c-5.8,0-10.5,4.7-10.5,10.5v105.6
			c0,5.8,4.7,10.5,10.5,10.5h5.4c5.8,0,10.5-4.7,10.5-10.5v-105.6c0-5.8-4.7-10.5-10.5-10.5H635.5z"/>
	</g>
	<g>
		<path class="st2" d="M513.5,1164.7c28.6,26.3,62.4,45.5,106.4,50.8v-50.8V1114C575.9,1119.2,542.1,1138.4,513.5,1164.7z"/>
		<path class="st1" d="M619.9,1220.5c-0.2,0-0.4,0-0.6,0c-40.7-4.9-76.4-21.9-109.2-52c-1-0.9-1.6-2.3-1.6-3.7s0.6-2.7,1.6-3.7
			c32.8-30.2,68.5-47.2,109.2-52c1.4-0.2,2.8,0.3,3.9,1.2c1.1,0.9,1.7,2.3,1.7,3.7v101.5c0,1.4-0.6,2.8-1.7,3.7
			C622.3,1220,621.1,1220.5,619.9,1220.5z M521,1164.7c28.5,25.1,59.4,39.8,93.9,45v-90.1C580.4,1124.9,549.5,1139.7,521,1164.7z"/>
	</g>
	<g>
		<path class="st0" d="M2544,1683.3c0,0,35.6-5.6,38,0.8s10.5,46.6,10.5,46.6l-22.5,18.5c0,0,28.9,12.9,34.6,12.9
			c5.6,0,79.6-44.2,84.4-51.4c4.8-7.2-0.8-110.9-5.6-123.8c-4.8-12.9-103.5-53.1-124.4-67.6c-20.9-14.5-76.6-59.4-76.6-59.4
			s-20.8,17-46.6,53.7c-22.4,31.8-26.6,67.1-26.6,67.1s60.4,40.8,63.6,48.9c3.2,8,51.4,109.4,51.4,109.4l30.7-21L2544,1683.3z"/>
		<path class="st1" d="M2604.5,1767c-6,0-27.6-9.3-36.6-13.3c-1.6-0.7-2.7-2.2-2.9-3.9c-0.2-1.7,0.4-3.4,1.8-4.5l20.2-16.6
			c-3-15.1-7.5-36.1-9.3-42c-3.4-1.2-14.9-0.9-27.1,0.6l9,28.9c0.7,2.1-0.1,4.4-2,5.6l-30.7,21c-1.2,0.8-2.7,1.1-4.1,0.7
			c-1.4-0.4-2.6-1.4-3.2-2.7c-2-4.1-47.9-100.8-51.5-109.6c-2.9-5.1-33.7-27.7-61.8-46.7c-1.6-1-2.4-2.9-2.2-4.7
			c0.2-1.5,4.7-36.9,27.5-69.4c25.9-36.8,46.7-53.9,47.5-54.7c1.8-1.5,4.5-1.5,6.3,0c0.6,0.4,55.8,45,76.3,59.2
			c7.9,5.5,28.3,15.2,49.9,25.5c49.5,23.6,73.1,35.7,76.4,44.4c3.2,8.5,5.7,45.2,6.7,65.5c0.7,15,1.1,29,1,39.5
			c-0.1,18-1.4,21.5-2.7,23.3c-3.6,5.4-28.8,21.1-43.5,29.9c-10.2,6.1-20,11.9-27.8,16.1C2607.8,1767,2605.9,1767,2604.5,1767z
			 M2603.9,1757.1C2603.9,1757.1,2603.9,1757.1,2603.9,1757.1L2603.9,1757.1z M2579.4,1747.9c10.8,4.6,21.6,8.7,24.8,9.2
			c3.7-1.2,20-10,41.1-22.8c25.4-15.4,37.3-24,39.3-26.3c3.4-10.4-1.5-107.3-6-119.4c-0.4-0.8-3.6-4.7-23.9-15.5
			c-13.7-7.3-30.8-15.5-47.4-23.4c-22.9-10.9-42.7-20.4-51.2-26.3c-18.1-12.5-61.2-47.1-73.6-57c-6.6,6-23.3,22.4-42.7,50
			c-17.7,25.1-23.7,52.9-25.3,61.9c5,3.4,16.5,11.3,28.1,19.7c32.2,23.3,33.8,27.4,34.7,29.6c2.4,5.9,31.6,67.7,48.8,103.8
			l22.8-15.6l-9.7-31c-0.4-1.4-0.2-2.9,0.5-4.1c0.8-1.2,2-2.1,3.5-2.3c0.4-0.1,9.2-1.4,18.5-2c15.9-1,22.9,0.7,24.9,6.1
			c2.5,6.6,9.9,43.2,10.7,47.4c0.4,1.8-0.3,3.7-1.7,4.8L2579.4,1747.9z M2684.5,1708.2C2684.5,1708.2,2684.5,1708.2,2684.5,1708.2
			L2684.5,1708.2z M2468,1631.3C2468,1631.3,2468,1631.3,2468,1631.3C2468,1631.3,2468,1631.3,2468,1631.3z"/>
	</g>
	<g>
		<path class="st1" d="M2635.9,1750.6c-2.3,0-4.4-1.6-4.9-4c-0.1-0.6-12.9-60.8-15.8-71.8c-2.1-8.2-16.3-24.4-21.6-29.9
			c-1.9-2-1.8-5.2,0.2-7.1c2-1.9,5.2-1.8,7.1,0.2c2.1,2.2,20.9,22.2,24.1,34.4c2.9,11.2,15.3,69.7,15.9,72.2
			c0.6,2.7-1.1,5.4-3.8,5.9C2636.6,1750.6,2636.2,1750.6,2635.9,1750.6z"/>
	</g>
	<g>
		<path class="st1" d="M2662.8,1729.7c-2.6,0-4.8-2-5-4.6c-1.3-17.8-5.1-66.1-7.4-75c-2.2-8.4-14-24.4-18.4-29.9
			c-1.7-2.2-1.4-5.3,0.8-7c2.2-1.7,5.3-1.4,7,0.8c1.8,2.2,17.2,21.7,20.3,33.7c3,11.6,7.5,74.1,7.7,76.7c0.2,2.8-1.9,5.1-4.6,5.3
			C2663.1,1729.7,2662.9,1729.7,2662.8,1729.7z"/>
	</g>
	<g>
		<path class="st1" d="M658.9,2773.5c-2.5,0-4.7-1.9-5-4.4L363.1,213.8c-0.3-2.7,1.7-5.2,4.4-5.5c2.7-0.3,5.2,1.7,5.5,4.4
			l290.8,2555.3c0.3,2.7-1.7,5.2-4.4,5.5C659.3,2773.5,659.1,2773.5,658.9,2773.5z"/>
	</g>
	<g>
		
			<rect x="462.1" y="1585.2" transform="matrix(0.9894 -0.1454 0.1454 0.9894 -266.7297 99.8901)" class="st2" width="176" height="579.8"/>
		<path class="st1" d="M505.2,2179.7c-1.1,0-2.1-0.3-3-1c-1.1-0.8-1.8-2-2-3.3L416,1601.8c-0.2-1.3,0.1-2.6,0.9-3.7
			c0.8-1.1,2-1.8,3.3-2l174.2-25.6c2.7-0.4,5.3,1.5,5.7,4.2l84.3,573.7c0.4,2.7-1.5,5.3-4.2,5.7l-174.2,25.6
			C505.7,2179.7,505.4,2179.7,505.2,2179.7z M426.6,1605.3l82.8,563.8l164.3-24.1l-82.8-563.8L426.6,1605.3z"/>
	</g>
	<g>
		<path class="st2" d="M489.9,1313.3c-93.2-2.7-174.9,13.8-259,51l-24.2-294.2c77.5-37.5,154.2-46.9,253.2-45.7L489.9,1313.3z"/>
		<path class="st1" d="M230.9,1369.3c-0.9,0-1.8-0.2-2.6-0.7c-1.4-0.8-2.3-2.3-2.4-3.9l-24.2-294.2c-0.2-2.1,0.9-4,2.8-4.9
			c37.7-18.3,76.9-30.6,119.9-37.8c38.2-6.4,81.3-9.1,135.5-8.4c2.5,0,4.7,2,4.9,4.5l30,288.9c0.1,1.4-0.3,2.9-1.3,3.9
			c-1,1.1-2.4,1.6-3.8,1.6c-91.2-2.7-172.8,13.4-256.8,50.5C232.3,1369.1,231.6,1369.3,230.9,1369.3z M212,1073.1l23.3,283.8
			c81.5-35,160.9-50.6,249-48.7l-29-278.8C366.2,1028.6,290.3,1036,212,1073.1z"/>
	</g>
	<g>
		<path class="st3" d="M702.5,2723.4c-140.5,27.5-280.6,32.5-420.1,14.4l-42-354.1c145.2,10.8,286.6,10.1,420.1-14.4L702.5,2723.4z"
			/>
		<path class="st1" d="M447.2,2753.3c-55.5,0-110.7-3.5-165.4-10.6c-2.3-0.3-4.1-2.1-4.3-4.4l-42-354.1c-0.2-1.5,0.3-3,1.4-4
			c1-1.1,2.5-1.6,4-1.5c165.6,12.3,298.7,7.7,418.8-14.3c1.4-0.2,2.8,0.1,3.9,0.9c1.1,0.8,1.8,2.1,2,3.4l42,354.1
			c0.3,2.6-1.4,5-4,5.5C618.1,2745,532.3,2753.3,447.2,2753.3z M286.9,2733.3c135.1,17.1,273,12.4,410.1-13.9l-40.8-344.2
			c-118.2,21.1-248.8,25.6-410.1,13.9L286.9,2733.3z"/>
	</g>
	<g>
		<path class="st3" d="M275.4,2000.3c-23.3-0.8-42.9-18.9-45-42.7L119.9,713.4c-2.2-24.8,15.4-47,40-50.6L546.9,607
			c25.6-3.7,49.4,14.1,53.1,39.7c3.7,25.6-14.1,49.4-39.7,53.1l-343.1,49.5l106.5,1199.9c2.3,25.8-16.8,48.6-42.6,50.9
			C279.2,2000.3,277.3,2000.3,275.4,2000.3z"/>
		<path class="st1" d="M277,2005.3c-0.6,0-1.2,0-1.8,0c-26.1-0.9-47.5-21.2-49.8-47.3L114.9,713.9c-2.4-27.4,17-52,44.3-56l387-55.9
			c28.3-4.1,54.7,15.6,58.8,43.9c2,13.7-1.5,27.4-9.8,38.5c-8.3,11.1-20.4,18.3-34.1,20.3l-338.4,48.9l106.1,1195.2
			c1.2,13.8-3,27.3-11.9,37.9c-8.9,10.6-21.4,17.2-35.2,18.4C280.1,2005.2,278.6,2005.3,277,2005.3z M553.7,611.5c-2,0-4,0.1-6,0.4
			l-387,55.9c-22,3.2-37.7,23-35.7,45.2l110.5,1244.1c1.9,21,19.2,37.4,40.2,38.2c0,0,0,0,0,0c1.7,0.1,3.5,0,5.2-0.1
			c11.2-1,21.2-6.3,28.4-14.8c7.2-8.6,10.6-19.4,9.6-30.6L212.3,749.8c-0.2-2.6,1.6-5,4.3-5.4l343.1-49.5
			c11.1-1.6,20.9-7.4,27.6-16.4c6.7-9,9.5-20,7.9-31.1C592.1,626.6,574.1,611.5,553.7,611.5z"/>
	</g>
	<g>
		<path class="st1" d="M1970.7,1478.9c-1.5,0-3-0.7-4-2c-44-58.3-44.8-150.7-44.9-154.6c0-2.8,2.2-5,5-5c0,0,0,0,0,0
			c2.8,0,5,2.2,5,5c0,0.2,0.1,23.6,5.5,53.5c4.9,27.4,15.4,66.2,37.3,95.1c1.7,2.2,1.2,5.3-1,7
			C1972.8,1478.6,1971.8,1478.9,1970.7,1478.9z"/>
	</g>
	<g>
		<path class="st1" d="M513.5,1169.7H351.4c-2.8,0-5-2.2-5-5s2.2-5,5-5h162.1c2.8,0,5,2.2,5,5S516.3,1169.7,513.5,1169.7z"/>
	</g>
	<g>
		<path class="st0" d="M708.3,1348.5c0,0,98.3,3.2,98.3,11.4s3.7,101.5-2,108.8c-5.7,7.4-88.9,18-94.6,13.1
			c-5.7-4.9-15.6-29.4-17.3-62.1C691.1,1387,708.3,1348.5,708.3,1348.5z"/>
		<path class="st1" d="M719.7,1488.1c-10.1,0-11.8-1.5-12.9-2.5c-7.9-6.8-17.4-33.8-19-65.7c-1.7-33.5,15.3-71.9,16-73.5
			c0.8-1.9,2.7-3,4.7-3c0.2,0,25,0.8,49.4,2.6c14.4,1.1,25.9,2.3,34.2,3.6c12.7,2,19.6,4.2,19.6,10.2c0,1.3,0.1,4.9,0.2,9.9
			c2.1,78.7,0.3,97.4-3.3,102c-1.3,1.6-3.6,4.7-25.7,9c-11.6,2.3-26.6,4.5-40.1,5.8C732.2,1487.7,724.9,1488.1,719.7,1488.1z
			 M712.9,1477.6c3.5,0.9,19.3,0.6,44.3-2.8c26.8-3.6,40.5-7.5,43.4-9.3c1.7-4.4,3.2-25,1.3-95.5c-0.1-3.5-0.2-6.2-0.2-8
			c-7.6-3-41.5-6.7-90.1-8.4c-3.9,9.6-15.1,39.9-13.8,65.8C699.4,1451.6,708.9,1473.4,712.9,1477.6z M713.3,1478L713.3,1478
			L713.3,1478z M712.6,1477.5 M800.5,1465.9C800.5,1465.9,800.5,1465.9,800.5,1465.9L800.5,1465.9z M800.9,1465.3L800.9,1465.3
			L800.9,1465.3z"/>
	</g>
	<g>
		<path class="st0" d="M708.3,1348.5c0,0,25.4-0.8,31.1-4.9c5.7-4.1,14.7-63.9,11-72c-3.7-8.2-33.1-9.5-38.8-8.6
			C705.9,1263.7,696.1,1337.8,708.3,1348.5z"/>
		<path class="st1" d="M708.3,1353.5c-1.2,0-2.4-0.4-3.3-1.2c-8.7-7.6-7.8-32.2-7.4-40.3c0.6-16.1,3.2-34.4,6.1-44.4
			c1.3-4.3,3-9,7.2-9.6c3.1-0.4,38.4-1.2,44.1,11.5c3,6.8-0.1,30.5-1.6,40.4c-5.1,33.5-9.6,36.7-11.1,37.8
			c-6.5,4.6-27.5,5.6-33.9,5.8C708.4,1353.5,708.4,1353.5,708.3,1353.5z M714.2,1267.7c-1.9,4.7-5,20-6.2,38.2
			c-1.6,22.9,0.7,33.8,2.7,37.6c11.6-0.5,22.7-2.1,25.6-3.7c1.5-2.5,4.7-13.8,7.5-32.6c2.9-19.4,3-31.3,2.2-33.6
			C743.9,1270,723.5,1267.1,714.2,1267.7z"/>
	</g>
	<g>
		<path class="st1" d="M807.5,1443.5h-80.6c-2.8,0-5-2.2-5-5s2.2-5,5-5h80.6c2.8,0,5,2.2,5,5S810.2,1443.5,807.5,1443.5z"/>
	</g>
	<g>
		<path class="st1" d="M806.7,1400.2h-79.8c-2.8,0-5-2.2-5-5s2.2-5,5-5h79.8c2.8,0,5,2.2,5,5S809.4,1400.2,806.7,1400.2z"/>
	</g>
	<g>
		<g>
			
				<ellipse transform="matrix(0.9521 -0.3057 0.3057 0.9521 -253.981 538.8451)" class="st2" cx="1593.7" cy="1080.5" rx="296" ry="280.7"/>
			<path class="st1" d="M1584.3,1367.8c-45.4,0-90.2-10-131.4-29.8c-70.7-34-122.5-92.7-145.8-165.4
				c-23.3-72.7-15.4-150.6,22.3-219.4c37.6-68.7,100.5-120,177-144.6c76.5-24.6,157.5-19.4,228.1,14.6
				c70.7,34,122.5,92.7,145.8,165.4c23.3,72.7,15.4,150.6-22.3,219.4c-37.6,68.7-100.5,120-177,144.6
				C1649.2,1362.7,1616.6,1367.8,1584.3,1367.8z M1603.1,803.2c-31.3,0-62.8,4.9-93.6,14.8c-74.1,23.8-134.9,73.5-171.3,139.9
				c-36.4,66.3-44,141.5-21.5,211.5s72.4,126.7,140.6,159.5c68.3,32.8,146.7,37.8,220.7,14c74.1-23.8,134.9-73.5,171.3-139.9
				c36.4-66.3,44-141.5,21.5-211.5c-22.5-70.1-72.4-126.7-140.6-159.5C1690.3,812.9,1647,803.2,1603.1,803.2z"/>
		</g>
		<g>
			<path class="st7" d="M1311.9,1170.9c46.9,146.1,208.6,225.1,362.8,178.2c76.6-75,102.5-186.3,80.4-314.3
				c-15.8-91.1-63.1-181.6-105.7-233c-45.6-7.1-93.9-3.9-141.5,11.4C1352.3,863.2,1264.5,1023.3,1311.9,1170.9z"/>
			<path class="st1" d="M1584.3,1367.7c-46.2,0-91.7-10.4-133.5-30.8c-69.6-34.1-120.6-92.5-143.7-164.4
				c-23.3-72.7-15.4-150.6,22.3-219.4c37.6-68.7,100.5-120,177-144.6c46.5-14.9,96.2-18.9,143.8-11.5c1.2,0.2,2.3,0.8,3.1,1.7
				c22.6,27.2,45.2,63.7,63.6,102.7c20.9,44.1,35.8,90,43.2,132.7c11.3,65.1,10.2,125.4-3.3,179.1c-13.8,55-40.2,102-78.6,139.6
				c-0.6,0.6-1.3,1-2,1.2C1645.9,1363.2,1615,1367.7,1584.3,1367.7z M1316.7,1169.4c22.2,69.3,71.5,125.6,138.6,158.5
				c66.8,32.8,143.7,38.7,216.8,16.8c36.6-36.1,61.8-81.2,75-134c13.1-52.4,14.1-111.2,3.1-175c-15.6-90.4-63-179.9-103.4-229.2
				c-45.4-6.8-92.8-2.8-137.3,11.5c-74.1,23.8-134.9,73.5-171.3,139.9C1301.8,1024.2,1294.2,1099.3,1316.7,1169.4z"/>
		</g>
		<g>
			<path class="st2" d="M1814.2,1038.7c-7.2-22.3-24.2-38.7-44.7-46l-3.3-10.3c0,0-38.7,8.3-42.8,9.6
				c-37.9,12.2-58.8,52.8-46.7,90.8s52.3,57.1,90.8,46.7c10.6-2.9,42.8-9.6,42.8-9.6l-5.7-17.7
				C1817.1,1084.3,1821.4,1061,1814.2,1038.7z"/>
			<path class="st1" d="M1746.5,1137.3c-12.7,0-25.1-2.9-36.4-8.5c-18.3-9.2-31.8-25-38-44.4c-13-40.5,9.4-84.1,49.9-97.1
				c4.2-1.4,39.3-8.9,43.3-9.8c2.5-0.5,5,0.9,5.8,3.4l2.6,8c21.8,8.5,38.2,26,45.4,48.3s3.9,46.1-8.8,65.7l5,15.4
				c0.4,1.3,0.3,2.8-0.4,4c-0.7,1.2-1.9,2.1-3.3,2.4c-0.3,0.1-32.2,6.8-42.5,9.6C1761.5,1136.3,1753.9,1137.3,1746.5,1137.3z
				 M1762.9,988.3c-14.9,3.2-35.3,7.7-37.9,8.6c-35.3,11.3-54.7,49.2-43.4,84.5c5.4,16.9,17.1,30.6,33,38.5
				c15.7,7.9,34.1,9.6,51.7,4.8c8-2.2,28-6.5,37.6-8.6l-4-12.5c-0.5-1.5-0.2-3.1,0.7-4.4c12.1-17.4,15.4-38.9,8.9-59
				s-21.6-35.7-41.6-42.8c-1.5-0.5-2.6-1.7-3.1-3.2L1762.9,988.3z"/>
		</g>
		<g>
			
				<ellipse transform="matrix(0.4571 -0.8894 0.8894 0.4571 35.9474 2161.1421)" class="st2" cx="1788.3" cy="1051.1" rx="72.2" ry="72.2"/>
			<path class="st1" d="M1788.2,1128.3c-12.1,0-24.1-2.9-35.2-8.6c-18.3-9.4-31.9-25.4-38.2-45c-13-40.5,9.4-84,49.9-97.1
				c40.5-13,84,9.4,97.1,49.9l0,0c6.3,19.6,4.6,40.5-4.8,58.9s-25.4,31.9-45,38.2C1804.1,1127.1,1796.2,1128.3,1788.2,1128.3z
				 M1788.3,984c-6.8,0-13.7,1-20.5,3.2c-35.3,11.3-54.7,49.2-43.4,84.5c5.5,17.1,17.3,31,33.2,39.2c16,8.2,34.1,9.7,51.2,4.2
				s31-17.3,39.2-33.2c8.2-16,9.7-34.1,4.2-51.2C1843.1,1002.1,1816.7,984,1788.3,984z"/>
		</g>
	</g>
	<g>
		<path class="st0" d="M851.5,1319.5c0,0-2.2,44-0.6,73.4s7.2,53.6,7.2,53.6l86.4,28.4c11.1-54.8,30-106,59.3-152.4
			c0,0-90.4-30-98.2-32.5s-32.7-39.8-55.6-37.3c-22.9,2.5-89.2,30.3-96.6,35.2c-7.4,4.9,15.6,36.8,31.9,36
			c16.4-0.8,48.3-12.3,54-12.3c5.7,0,29.5,25.4,40.1,25.4"/>
		<path class="st1" d="M944.6,1479.9c-0.5,0-1.1-0.1-1.6-0.3l-86.4-28.4c-1.7-0.5-2.9-1.9-3.3-3.6c-0.2-1-5.7-25-7.3-54.4
			c-1.4-25.2,0-61.4,0.4-71.3c-3.1-2.4-6-4.6-7.4-5.2c-2.2,0.2-9.1,2.2-14.8,3.8c-12.6,3.5-28.2,7.9-38.7,8.5c-0.3,0-0.6,0-0.9,0
			c-9.2,0-18-7.2-22.5-11.6c-6.7-6.5-12.1-14.5-14.2-20.8c-2.6-7.8,0.6-11.4,2.7-12.8c8-5.3,74.8-33.4,98.8-36
			c18.1-1.9,35.2,15.5,47.7,28.3c3.7,3.8,8.4,8.6,10,9.2c7.8,2.4,94.6,31.3,98.3,32.5c1.5,0.5,2.6,1.6,3.1,3.1
			c0.5,1.4,0.3,3-0.5,4.4c-27.8,44.1-46.9,93.4-58.6,150.7c-0.3,1.4-1.2,2.6-2.4,3.3C946.3,1479.6,945.4,1479.9,944.6,1479.9z
			 M862.5,1442.6l78.3,25.8c11.5-53.9,29.7-100.8,55.4-143.1c-20.3-6.8-85.6-28.4-92.1-30.5c-3.5-1.1-7.3-4.8-14.1-11.8
			c-10.5-10.7-26.3-26.8-39.5-25.3c-20.9,2.2-83.1,27.9-93.5,33.9c0.3,2.4,3.2,8.8,9.4,15.7c6.4,7.1,13.5,11.7,18.4,11.7
			c0.1,0,0.2,0,0.4,0c9.3-0.5,25-4.9,36.5-8.1c9.8-2.8,15-4.2,17.8-4.2c3.6,0,7.7,2.9,15.2,8.9c0.1,0.1,0.2,0.1,0.3,0.2
			c0.7,0.6,1.5,1.2,2.3,1.8c6.7,5.4,18,14.5,22.4,14.5c2.8,0,5,2.2,5,5s-2.2,5-5,5c-6.2,0-13.8-5-23.3-12.5
			c-0.5,14.6-1.3,42.6-0.2,63C857.2,1415.5,861,1435.5,862.5,1442.6z"/>
	</g>
</g>
</svg>
