<?xml version="1.0" encoding="utf-8"?>
<!-- Generator: Adobe Illustrator 27.2.0, SVG Export Plug-In . SVG Version: 6.00 Build 0)  -->
<svg version="1.0" id="Layer_1" xmlns="http://www.w3.org/2000/svg" xmlns:xlink="http://www.w3.org/1999/xlink" x="0px" y="0px"
	 viewBox="0 0 64 64" style="enable-background:new 0 0 64 64;" xml:space="preserve">
<style type="text/css">
	.st0{fill:none;stroke:#231F20;stroke-width:2;stroke-linecap:round;stroke-linejoin:round;stroke-miterlimit:10;}
	.st1{fill:none;stroke:#231F20;stroke-width:1.5;stroke-linecap:round;stroke-linejoin:round;stroke-miterlimit:10;}
</style>
<g>
	<path class="st0" d="M39.05,14.69v13.58c0,3.5-2.81,6.34-6.28,6.34h-13.3l-8.71,7.98v-7.98H8.88c-3.47,0-6.28-2.84-6.28-6.34V14.69
		c0-3.5,2.81-6.34,6.28-6.34h23.88C36.23,8.35,39.05,11.19,39.05,14.69z"/>
	<path class="st0" d="M39.05,20.98h16.35c3.47,0,6.28,2.84,6.28,6.34V40.9c0,3.5-2.81,6.34-6.28,6.34H42.1l-8.71,7.98v-7.98h-1.87
		c-3.47,0-6.28-2.84-6.28-6.34v-6.29"/>
	<g>
		<line class="st0" x1="14.51" y1="16.07" x2="27.13" y2="16.07"/>
		<path class="st0" d="M24.97,16.07c0,0-0.33,8.31-9.1,11.87"/>
		<path class="st0" d="M17.43,19.25c0,0,2.44,7.09,8.66,8.69"/>
		<line class="st0" x1="20.82" y1="16.07" x2="20.82" y2="14.32"/>
	</g>
	<g>
		<path class="st0" d="M51.52,39.3l-2.38-10.02c-0.19-0.78-0.88-1.34-1.68-1.34h-2.21c-0.8,0-1.49,0.55-1.68,1.34L41.19,39.3"/>
		<line class="st0" x1="42.48" y1="33.89" x2="50.24" y2="33.89"/>
	</g>
</g>
</svg>
