<svg xmlns="http://www.w3.org/2000/svg" width="128" height="128" viewBox="0 0 128 128">
  <title>LISTENING</title>
  <g>
    <path d="M86.661,46.855A28.45,28.45,0,0,0,66.329,59.664a1.75,1.75,0,0,0,2.938,1.9A24.959,24.959,0,0,1,87.1,50.327a1.75,1.75,0,0,0-.441-3.472Z"/>
    <path d="M39.458,76.186H25.685V42.63A24.292,24.292,0,0,1,49.95,18.366H78.636a6.5,6.5,0,0,1,6.5,6.5,1.75,1.75,0,1,0,3.5,0,10.007,10.007,0,0,0-10-10H49.95A27.8,27.8,0,0,0,22.185,42.63V77.936a1.749,1.749,0,0,0,1.75,1.75H39.458a10.91,10.91,0,0,1,0,21.819H23.935a1.75,1.75,0,0,0,0,3.5H39.458a14.41,14.41,0,0,0,0-28.819Z"/>
    <path d="M114.931,69.69H81.817a9.825,9.825,0,0,1,8.316-4.563A13.379,13.379,0,0,0,103.5,51.763v-26.9A24.89,24.89,0,0,0,78.636,0H49.95A42.679,42.679,0,0,0,7.319,42.63V93.344A26.556,26.556,0,0,0,33.845,119.87h19.9a26.214,26.214,0,0,0,15.924-5.342H80.485l18.74,13.154a1.749,1.749,0,0,0,2.755-1.432V114.528h12.951a5.756,5.756,0,0,0,5.75-5.75V75.44A5.757,5.757,0,0,0,114.931,69.69ZM53.743,116.37h-19.9A23.052,23.052,0,0,1,10.819,93.344V42.63A39.175,39.175,0,0,1,49.95,3.5H78.636A21.385,21.385,0,0,1,100,24.861v26.9a9.875,9.875,0,0,1-9.864,9.864A13.314,13.314,0,0,0,77.866,69.69H66.337a5.757,5.757,0,0,0-5.75,5.75v33.338A5.816,5.816,0,0,0,63.932,114,22.8,22.8,0,0,1,53.743,116.37Zm63.438-7.592a2.252,2.252,0,0,1-2.25,2.25h-14.7a1.751,1.751,0,0,0-1.75,1.75v10.1L82.043,111.346a1.745,1.745,0,0,0-1.005-.318h-14.7a2.253,2.253,0,0,1-2.25-2.25V75.44a2.253,2.253,0,0,1,2.25-2.25h48.594a2.253,2.253,0,0,1,2.25,2.25Z"/>
    <path d="M94.352,81.947a3.189,3.189,0,0,0-3.06-2.319H89.976a3.191,3.191,0,0,0-3.06,2.319l-5.731,20.421a1.75,1.75,0,1,0,3.37.946l1.977-7.044h8.2l1.977,7.044a1.75,1.75,0,1,0,3.37-.946ZM87.514,92.77l2.707-9.642h.827l2.706,9.642Z"/>
  </g>
</svg>
