<?xml version="1.0" encoding="utf-8"?>
<!-- Generator: Adobe Illustrator 27.2.0, SVG Export Plug-In . SVG Version: 6.00 Build 0)  -->
<svg version="1.0" id="Layer_1" xmlns="http://www.w3.org/2000/svg" xmlns:xlink="http://www.w3.org/1999/xlink" x="0px" y="0px"
	 viewBox="0 0 64 64" style="enable-background:new 0 0 64 64;" xml:space="preserve">
<style type="text/css">
	.st0{fill:none;stroke:#231F20;stroke-width:2;stroke-linecap:round;stroke-linejoin:round;stroke-miterlimit:10;}
	.st1{fill:none;stroke:#231F20;stroke-width:1.5;stroke-linecap:round;stroke-linejoin:round;stroke-miterlimit:10;}
</style>
<g>
	<g>
		<path class="st0" d="M32,54.33c0,5.25-5.92,6.97-9.67,4.25c-4.09-2.96-2.42-6.59-2.42-6.59c-7.25-0.25-5.5-7-5.5-7
			c-8.22-1.67-3.92-9.13-3.92-9.13c-2.25-0.38-4.88-2.81-4.19-7.38c0.7-4.62,6.02-5.42,6.02-5.42s-3.34-2.75-1.18-7.45
			c1.92-4.19,7.1-4.14,7.1-4.14s-0.54-4.92,4-6.75c2.1-0.85,4.08-0.64,5.71-0.09C30.41,5.46,32,7.86,32,10.46v45.03"/>
		<path class="st0" d="M12.32,23.06c0,0,4.21-1.25,7.34,2.71"/>
		<path class="st0" d="M14.41,44.99c0,0,0.23-3.25,5.25-3.69"/>
		<path class="st0" d="M17.03,32.67c0,0,2.71,3,7.52,1.44"/>
		<path class="st0" d="M18.24,11.47c0,0,4.31-0.56,6.32,3.44"/>
		<path class="st0" d="M25.81,20.41c0,0,6.19,0.13,6.19,8.19"/>
		<path class="st0" d="M32,51.24c0,0-0.54-6.04-8.84-4.71"/>
		<path class="st0" d="M26.91,38.82c0,0-0.55,6.04,2.81,8.7"/>
		<path class="st0" d="M12.55,31.4c0,0-0.69,2.23-2.06,4.46"/>
		<path class="st0" d="M18.2,24.32c0,0-2.08-2.28-0.23-5.78"/>
		<path class="st0" d="M32,54.33c0,5.25,5.92,6.97,9.67,4.25c4.09-2.96,2.42-6.59,2.42-6.59c7.25-0.25,5.5-7,5.5-7
			c8.22-1.67,3.92-9.13,3.92-9.13c2.25-0.38,4.88-2.81,4.19-7.38c-0.7-4.62-6.02-5.42-6.02-5.42s3.34-2.75,1.18-7.45
			c-1.92-4.19-7.1-4.14-7.1-4.14s0.54-4.92-4-6.75c-2.1-0.85-4.08-0.64-5.71-0.09C33.59,5.46,32,7.86,32,10.46v45.03"/>
	</g>
	<g>
		<path class="st0" d="M46.35,26.79l-2.01-8.4c-0.16-0.66-0.75-1.12-1.42-1.12h-1.87c-0.68,0-1.26,0.46-1.42,1.12l-2.01,8.4"/>
		<line class="st0" x1="38.7" y1="22.25" x2="45.26" y2="22.25"/>
	</g>
	<g>
		<line class="st0" x1="36.92" y1="32.91" x2="47.03" y2="32.91"/>
		<path class="st0" d="M45.3,32.91c0,0-0.27,6.65-7.29,9.51"/>
		<path class="st0" d="M39.26,35.47c0,0,1.95,5.68,6.94,6.96"/>
		<line class="st0" x1="41.98" y1="32.91" x2="41.98" y2="31.01"/>
	</g>
</g>
</svg>
