<?xml version="1.0" encoding="utf-8"?>
<!-- Generator: Adobe Illustrator 27.8.1, SVG Export Plug-In . SVG Version: 6.00 Build 0)  -->
<svg version="1.1" id="Outline" xmlns="http://www.w3.org/2000/svg" xmlns:xlink="http://www.w3.org/1999/xlink" x="0px" y="0px"
	 viewBox="0 0 48 48" enable-background="new 0 0 48 48" xml:space="preserve">
<g>
	<path d="M41.05257,26.1958c-0.24512-0.3335-0.71533-0.4043-1.04883-0.16016c-0.3335,0.24561-0.40527,0.71484-0.16016,1.04883
		c2.36768,3.22119,1.67383,7.76807-1.54736,10.13525c-0.33344,0.24554-0.40521,0.71466-0.16028,1.04865
		c0.22278,0.30371,0.7215,0.40051,1.04895,0.16034C43.0721,35.57129,43.90999,30.0835,41.05257,26.1958z"/>
	<path d="M38.63509,27.97266c-0.24561-0.33398-0.71484-0.40479-1.04883-0.16016c-0.3335,0.24561-0.40527,0.71484-0.16016,1.04883
		c0.67285,0.91455,0.94873,2.03662,0.77734,3.15869s-0.76904,2.11035-1.68408,2.78271
		c-0.3335,0.24561-0.40527,0.71484-0.1601,1.04889c0.24426,0.33179,0.71655,0.40381,1.04877,0.1601
		C39.96272,34.13379,40.51302,30.52734,38.63509,27.97266z"/>
	<path d="M36.21809,29.74951c-0.24561-0.3335-0.71484-0.40527-1.04883-0.16016c-0.3335,0.24561-0.40527,0.71484-0.16016,1.04883
		c0.40869,0.55518,0.28906,1.33936-0.2666,1.74756c-0.33337,0.24554-0.40521,0.71454-0.16034,1.04852
		c0.23694,0.32318,0.72803,0.39587,1.04901,0.16046c0.5918-0.43506,0.979-1.07471,1.08984-1.80127
		C36.83138,31.06738,36.65315,30.3418,36.21809,29.74951z"/>
	<path d="M36.62202,26.42041c0.13965-0.20605,0.16748-0.46777,0.0752-0.69873L34.75044,20.854
		C34.67183,12.7876,28.0854,6.25,20.00093,6.25c-8.1333,0-14.75,6.6167-14.75,14.75c0,6.39502,4.07764,12.02637,10.14648,14.0127
		c0.39502,0.12891,0.81738-0.08594,0.94629-0.47949s-0.08594-0.81738-0.47949-0.94629
		C10.41304,31.80273,6.75093,26.74463,6.75093,21c0-7.30615,5.94385-13.25,13.25-13.25s13.25,5.94385,13.25,13.25
		c0,0.09521,0.01807,0.18994,0.05371,0.27832L34.89302,25.25h-2.89209c-0.35742,0-0.66553,0.25244-0.73535,0.60303l-0.40527,2.0249
		l-2.83301,0.65381c-0.73877,0.17041-1.25879,0.79346-1.29492,1.55078c-0.03564,0.75684,0.42285,1.42627,1.1416,1.66553
		l2.17822,0.72607L29.4604,34.25h-3.45947c-0.41406,0-0.75,0.33594-0.75,0.75v5.25h-14.5V35c0-0.41406-0.33594-0.75-0.75-0.75
		s-0.75,0.33594-0.75,0.75v6c0,0.41406,0.33594,0.75,0.75,0.75h16c0.41406,0,0.75-0.33594,0.75-0.75v-5.25h3.25
		c0.32275,0,0.60938-0.20654,0.71143-0.5127l1-3c0.13086-0.39307-0.08105-0.81787-0.47412-0.94873L28.3481,30.3252
		c-0.03027-0.01025-0.12354-0.0415-0.11719-0.17188s0.10205-0.15234,0.1333-0.15967l3.30518-0.7627
		c0.2876-0.06641,0.50928-0.29492,0.56689-0.58398L32.61568,26.75h3.38525C36.24995,26.75,36.48238,26.62646,36.62202,26.42041z"/>
</g>
</svg>
