<?xml version="1.0" encoding="utf-8"?>
<!-- Generator: Adobe Illustrator 27.8.1, SVG Export Plug-In . SVG Version: 6.00 Build 0)  -->
<svg version="1.1" id="Outline" xmlns="http://www.w3.org/2000/svg" xmlns:xlink="http://www.w3.org/1999/xlink" x="0px" y="0px"
	 viewBox="0 0 48 48" enable-background="new 0 0 48 48" xml:space="preserve">
<g>
	<path d="M18.15076,13.21234c0.29497,0.04593,0.61261-0.06342,0.77014-0.37689l0.5791-1.1582c0,0,0.57678,1.15356,0.5791,1.1582
		c0.31213,0.62421,1.27893,0.48938,1.4082-0.19727l0.75-4c0.07617-0.40723-0.19189-0.79883-0.59912-0.87549
		C21.229,7.68311,20.83936,7.95459,20.7627,8.36182l-0.33887,1.80859L20.1709,9.66455c-0.25391-0.50781-1.08789-0.50781-1.3418,0
		l-0.25293,0.50586L18.2373,8.36182c-0.07715-0.40674-0.46582-0.67773-0.87549-0.59912
		c-0.40723,0.07666-0.67529,0.46826-0.59912,0.87549c0,0,0.747,3.98392,0.74999,3.99996
		C17.57212,12.95674,17.84963,13.16545,18.15076,13.21234z"/>
	<path d="M19.5,22.25c1.5166,0,2.75-1.2334,2.75-2.75s-1.2334-2.75-2.75-2.75s-2.75,1.2334-2.75,2.75S17.9834,22.25,19.5,22.25z
		 M19.5,18.25c0.68945,0,1.25,0.56055,1.25,1.25s-0.56055,1.25-1.25,1.25s-1.25-0.56055-1.25-1.25S18.81055,18.25,19.5,18.25z"/>
	<path d="M21.5,27.7002c0-1.13037-0.91943-2.05029-2.0498-2.05029H18.25c-0.41406,0-0.75,0.33594-0.75,0.75v4
		c0,0.41406,0.33594,0.75,0.75,0.75s0.75-0.33594,0.75-0.75V29.75h0.05975c0,0,0.82477,1.17841,0.82599,1.18018
		c0.23474,0.33539,0.71002,0.41864,1.04443,0.18408c0.33936-0.2373,0.42188-0.70508,0.18408-1.04443l-0.4873-0.69629
		C21.15332,29.0022,21.5,28.39203,21.5,27.7002z M19.4502,28.25H19v-1.1001h0.4502c0.30322,0,0.5498,0.24707,0.5498,0.55029
		S19.75342,28.25,19.4502,28.25z"/>
	<path d="M19,40.25c1.5166,0,2.75-1.2334,2.75-2.75s-1.2334-2.75-2.75-2.75h-1c-0.41406,0-0.75,0.33594-0.75,0.75v4
		c0,0.41406,0.33594,0.75,0.75,0.75H19z M18.75,36.25H19c0.68945,0,1.25,0.56055,1.25,1.25s-0.56055,1.25-1.25,1.25h-0.25V36.25z"/>
	<path d="M30,14.25c-0.40997,0-0.75,0.33997-0.75,0.75c0,0.40997,0.34003,0.75,0.75,0.75h12c0.40997,0,0.75-0.34003,0.75-0.75V6
		c0-0.41003-0.34003-0.75-0.75-0.75H12c-0.40997,0-0.75,0.33997-0.75,0.75c0,0.40997,0.34003,0.75,0.75,0.75h2.25v7.5h-7.5v-7.5H9
		c0.40997,0,0.75-0.34003,0.75-0.75c0-0.41003-0.34003-0.75-0.75-0.75H6C5.59003,5.25,5.25,5.58997,5.25,6v9
		c0,0.40997,0.34003,0.75,0.75,0.75h8.25V36c0,0.40997,0.34003,0.75,0.75,0.75s0.75-0.34003,0.75-0.75v-2.25h7.5v7.5h-7.5V39
		c0-0.41003-0.34003-0.75-0.75-0.75s-0.75,0.33997-0.75,0.75v3c0,0.40997,0.34003,0.75,0.75,0.75h9
		c0.40997,0,0.75-0.34003,0.75-0.75v-8.25H42c0.40997,0,0.75-0.34003,0.75-0.75v-9c0-0.41003-0.34003-0.75-0.75-0.75H24.75v-7.5H27
		c0.40997,0,0.75-0.34003,0.75-0.75c0-0.41003-0.34003-0.75-0.75-0.75h-2.25v-7.5h7.5v7.5H30z M33.75,6.75h7.5v7.5h-7.5V6.75z
		 M23.25,32.25h-7.5v-7.5h7.5V32.25z M23.25,23.25h-7.5v-7.5h7.5V23.25z M23.25,14.25h-7.5v-7.5h7.5V14.25z M33.75,24.75h7.5v7.5
		h-7.5V24.75z M32.25,24.75v7.5h-7.5v-7.5H32.25z"/>
</g>
</svg>
