<svg viewBox="0 0 395.52 118.9339500892973" height="118.9339500892973" width="395.52" data-background-color="#ffffff" preserveAspectRatio="xMidYMid meet" id="tight-bounds" xmlns="http://www.w3.org/2000/svg" xmlns:xlink="http://www.w3.org/1999/xlink"><g><svg viewBox="0 0 591.7447841759999 177.93928151999995" height="118.9339500892973" width="395.52"><g transform="matrix(1,0,0,1,196.22478417599996,50.24164075999998)"><svg viewBox="0 0 395.52 77.45599999999999" height="77.45599999999999" width="395.52"><g id="textblocktransform"><svg viewBox="0 0 395.52 77.45599999999999" height="77.45599999999999" width="395.52" id="textblock"><g><svg viewBox="0 0 395.52 77.45599999999999" height="77.45599999999999" width="395.52"><g transform="matrix(1,0,0,1,0,0)"><svg width="395.52" viewBox="2.200000047683716 -32.400001525878906 167.97999572753906 32.900001525878906" height="77.45599999999999" data-palette-color="#8789fe"><path d="M12.9-10.15L12.9-10.15 10.6-10.15 10.6 0 2.2 0 2.2-31.05 12.35-31.05Q17.7-31.05 20.3-28.6 22.9-26.15 22.9-20.55 22.9-14.95 20.45-12.55 18-10.15 12.9-10.15ZM13.85-16.9Q14.3-17.75 14.3-19.95 14.3-22.15 13.8-23.05 13.3-23.95 11.8-23.95L11.8-23.95 10.6-23.95 10.6-16.05 12-16.05Q13.4-16.05 13.85-16.9ZM33.15-23.7L33.15 0 24.9 0 24.9-23.7 33.15-23.7ZM25.55-25.6Q24.5-26.5 24.5-28.5 24.5-30.5 25.55-31.45 26.6-32.4 29-32.4 31.4-32.4 32.45-31.45 33.5-30.5 33.5-28.53 33.5-26.55 32.45-25.63 31.4-24.7 29-24.7 26.6-24.7 25.55-25.6ZM46.77-17.25Q45.3-17.25 44.8-15.93 44.3-14.6 44.3-11.8 44.3-9 44.77-7.75 45.25-6.5 46.77-6.5 48.3-6.5 50.75-7.05L50.75-7.05 51.65-0.65Q48.2 0.5 45.5 0.5L45.5 0.5Q40.75 0.5 38.32-2.7 35.9-5.9 35.9-11.65 35.9-17.4 38.4-20.98 40.9-24.55 45.65-24.55L45.65-24.55Q49.2-24.55 52.05-23.35L52.05-23.35 51.15-16Q48.25-17.25 46.77-17.25ZM69.34-12L74.19 0 64.94 0 61.89-9.2 61.69-9.2 61.69 0 53.54 0 53.54-32.05 61.79-32.05 61.79-14.4 61.99-14.4 65.64-23.95 74.39-23.95 69.34-12ZM99.29-31.05L107.19-31.05 104.39 0 94.09 0 91.39-13.75 90.99-13.75 88.74 0 78.39 0 75.14-31.05 83.34-31.05 84.64-14.6 85.14-14.6 87.24-31.05 95.59-31.05 97.89-14.6 98.39-14.6 99.29-31.05ZM109.29-12.08Q109.29-18.65 111.81-21.6 114.34-24.55 119.71-24.55 125.09-24.55 127.54-21.65 129.99-18.75 129.99-12.13 129.99-5.5 127.59-2.5 125.19 0.5 119.74 0.5 114.29 0.5 111.79-2.5 109.29-5.5 109.29-12.08ZM121.31-16.8Q120.99-17.8 119.69-17.8 118.39-17.8 118.04-16.8 117.69-15.8 117.69-12.6L117.69-12.6 117.69-11.4Q117.69-7.85 118.04-6.8 118.39-5.75 119.66-5.75 120.94-5.75 121.29-6.8 121.64-7.85 121.64-11.1L121.64-11.1 121.64-12.55Q121.64-15.8 121.31-16.8ZM140.89-13.45L140.89-13.45 140.89 0 132.59 0 132.59-23.95 139.89-23.95 140.39-22.5 140.59-22.5Q141.74-23.8 142.91-24.18 144.09-24.55 146.74-24.55L146.74-24.55 146.39-16.55 144.09-16.55Q142.14-16.55 141.51-15.95 140.89-15.35 140.89-13.45ZM170.18-5.75L169.43 0.3 166.08 0.5Q162.23 0.5 161.38-2.05L161.38-2.05 161.13-2.05Q159.48 0.5 156.08 0.5L156.08 0.5Q151.58 0.5 149.76-2.65 147.93-5.8 147.93-12.03 147.93-18.25 149.98-21.4 152.03-24.55 155.88-24.55L155.88-24.55Q158.53-24.55 159.98-23.3L159.98-23.3 159.98-32.05 168.33-32.05 168.33-7.35Q168.33-6.4 168.73-6.08 169.13-5.75 170.18-5.75L170.18-5.75ZM158.11-17.5Q157.03-17.5 156.68-16.23 156.33-14.95 156.33-12.58 156.33-10.2 156.38-9.35 156.43-8.5 156.61-7.63 156.78-6.75 157.16-6.43 157.53-6.1 158.41-6.1 159.28-6.1 160.23-6.55L160.23-6.55 160.23-16.9Q159.18-17.5 158.11-17.5Z" opacity="1" transform="matrix(1,0,0,1,0,0)" fill="#8789fe" class="wordmark-text-0" data-fill-palette-color="primary" id="text-0"></path></svg></g></svg></g></svg></g></svg></g><g><svg viewBox="0 0 177.93928151999995 177.93928151999995" height="177.93928151999995" width="177.93928151999995"><g><svg></svg></g><g id="icon-0"><svg viewBox="0 0 177.93928151999995 177.93928151999995" height="177.93928151999995" width="177.93928151999995"><g><rect width="161.79293930799997" height="161.79293930799997" x="8.07317110599999" y="8.07317110599999" fill="#8789fe" data-fill-palette-color="accent"></rect><rect width="161.79293930799997" height="161.79293930799997" x="16.146342211999986" y="-7.105427357601002e-15" fill="#8789fe" opacity="0.5" data-fill-palette-color="accent"></rect></g><g transform="matrix(1,0,0,1,23.066203159999986,23.066203159999986)"><svg viewBox="0 0 131.80687519999998 131.80687519999998" height="131.80687519999998" width="131.80687519999998"><g><svg xmlns="http://www.w3.org/2000/svg" xmlns:xlink="http://www.w3.org/1999/xlink" version="1.1" x="0" y="0" viewBox="25.700000762939453 25.700000762939453 44.500003814697266 44.500003814697266" enable-background="new 0 0 96 96" xml:space="preserve" height="131.80687519999998" width="131.80687519999998" class="icon-symbol-0" data-fill-palette-color="quaternary" id="symbol-0"><path d="M31.6 25.7c-5.6 0-5.9 5.3-5.9 5.6v38.9c19.9 0 35.2 0 38.6 0 5.6 0 5.9-5.3 5.9-5.6V25.7H31.6zM54.6 38.9c1.7 0 3 1.3 3 3s-1.3 3-3 3-3-1.3-3-3S53 38.9 54.6 38.9zM41.4 38.9c1.7 0 3 1.3 3 3s-1.3 3-3 3-3-1.3-3-3S39.7 38.9 41.4 38.9zM60.7 54.5c-3 2.8-7.6 4.4-12.5 4.4s-9.7-1.7-12.7-4.5c-0.7-0.7-0.7-1.9 0-2.6 0.7-0.7 1.9-0.7 2.6 0 2.2 2.2 6 3.5 10.1 3.5 4 0 7.7-1.3 10-3.4 0.7-0.7 1.9-0.6 2.6 0.1C61.5 52.6 61.5 53.8 60.7 54.5z" fill="#ffffff" data-fill-palette-color="quaternary"></path></svg></g></svg></g></svg></g></svg></g></svg></g><defs></defs></svg>