<svg xmlns="http://www.w3.org/2000/svg" width="128" height="128" viewBox="0 0 128 128">
  <title>HEAD</title>
  <g>
    <path d="M23.776,11.752a3.041,3.041,0,0,0-2.919-2.213h-1.18a3.042,3.042,0,0,0-2.919,2.212L11.615,30.074a1.75,1.75,0,0,0,3.37.946l1.737-6.189h7.09l1.737,6.189a1.75,1.75,0,1,0,3.37-.946ZM17.7,21.331l2.328-8.292h.47l2.327,8.292Z"/>
    <path d="M64.542,31.843a1.75,1.75,0,1,0,2.352-2.592,15.771,15.771,0,0,1-5.187-10.962l-.025-.5H66.81a1.75,1.75,0,0,0,0-3.5H61.592v-3a1.75,1.75,0,0,0-3.5,0v3H52.876a1.75,1.75,0,1,0,0,3.5H58l-.025.5a15.766,15.766,0,0,1-5.186,10.962,1.75,1.75,0,0,0,2.352,2.592,19.3,19.3,0,0,0,4.7-6.533A19.315,19.315,0,0,0,64.542,31.843Z"/>
    <path d="M45.292,12.765A1.745,1.745,0,0,0,42.613,15H33.6a1.75,1.75,0,1,0,0,3.5h9.014a1.746,1.746,0,0,0,2.679,2.236l2.523-2.819a1.749,1.749,0,0,0,0-2.334Z"/>
    <path d="M46.511,23.335H37.5a1.746,1.746,0,0,0-2.68-2.235l-2.523,2.818a1.751,1.751,0,0,0,0,2.334l2.523,2.819a1.746,1.746,0,0,0,2.68-2.236h9.014a1.75,1.75,0,0,0,0-3.5Z"/>
    <path d="M125.647,43.161h0c-5.412-13.572-18.9-21.878-35.214-21.727A33.143,33.143,0,0,0,80.109,23.2V5.75A5.757,5.757,0,0,0,74.359,0H5.75A5.757,5.757,0,0,0,0,5.75V36.085a5.757,5.757,0,0,0,5.75,5.75H29.906L48.645,54.989A1.762,1.762,0,0,0,51.4,53.557V41.835H59.83a34.923,34.923,0,0,0-3.023,14.147v11.11L45.133,86.146a1.749,1.749,0,0,0,1.492,2.664h9.61V98.8a6.725,6.725,0,0,0,6.718,6.717h9.475a3.22,3.22,0,0,1,3.217,3.217v17.516A1.75,1.75,0,0,0,77.4,128l39.982,0a1.75,1.75,0,0,0,1.75-1.75v-36.7a32,32,0,0,1,4.6-16.918A35.336,35.336,0,0,0,125.647,43.161Zm-76-4.826a1.751,1.751,0,0,0-1.75,1.75v10.1L31.464,38.653a1.751,1.751,0,0,0-1.006-.318H5.75a2.252,2.252,0,0,1-2.25-2.25V5.75A2.252,2.252,0,0,1,5.75,3.5H74.359a2.252,2.252,0,0,1,2.25,2.25V36.085a2.252,2.252,0,0,1-2.25,2.25Zm71.058,32.53a35.41,35.41,0,0,0-5.082,18.686V124.5l-36.482,0V108.732a6.724,6.724,0,0,0-6.717-6.717H62.953A3.221,3.221,0,0,1,59.735,98.8V87.06a1.75,1.75,0,0,0-1.75-1.75H49.749L60.049,68.5a1.751,1.751,0,0,0,.258-.914v-11.6a31.438,31.438,0,0,1,3.379-14.147H74.359a5.756,5.756,0,0,0,5.75-5.75V26.906a29.646,29.646,0,0,1,10.359-1.973c14.863-.121,27.064,7.326,31.927,19.524A31.722,31.722,0,0,1,120.709,70.865Z"/>
  </g>
</svg>
