<svg fill="#000000" xmlns="http://www.w3.org/2000/svg"  viewBox="0 0 32 32" width="32px" height="32px"><path d="M 13.375 7.0625 C 12.566406 7.058594 11.679688 7.152344 10.71875 7.375 C 6.96875 8.246094 5.109375 10.417969 4.40625 12.46875 C 4.054688 13.492188 3.949219 14.46875 3.9375 15.25 C 3.925781 15.839844 3.980469 16.148438 4 16.40625 C 3.875 16.511719 3.835938 16.472656 3.71875 16.625 C 3.394531 17.050781 3.113281 17.695313 3.03125 18.53125 C 1.773438 19.265625 1.125 20.5 1.125 20.5 L 2.875 21.5 C 2.875 21.5 3.867188 20 5 20 C 14.402344 20 18.542969 17.332031 20.75 14.625 C 21.855469 13.269531 22.476563 11.953125 23.0625 11.125 C 23.648438 10.296875 23.96875 10 24.90625 10 C 25.890625 10 26.652344 10.265625 27.15625 10.71875 C 27.609375 11.125 27.910156 11.75 27.96875 12.6875 C 27.0625 14.113281 25.726563 14.554688 24.21875 15.3125 C 23.425781 15.710938 22.59375 16.226563 21.96875 17.09375 C 21.34375 17.960938 21 19.132813 21 20.65625 C 21 21.242188 21.269531 21.789063 21.5625 22.125 C 21.855469 22.460938 22.152344 22.664063 22.375 22.84375 C 22.453125 22.90625 22.46875 22.949219 22.53125 23 L 19.9375 23 C 19.707031 23 19.535156 22.824219 19.3125 22.46875 C 19.089844 22.113281 18.96875 21.75 18.96875 21.75 L 18.625 20.53125 L 17.53125 21.125 C 17.53125 21.125 15.816406 22 13.4375 22 L 8.90625 22 L 8.625 22.46875 C 8.625 22.46875 8.246094 23 7.625 23 L 5.8125 23 C 6.015625 22.828125 6.21875 22.667969 6.4375 22.40625 C 6.714844 22.078125 7 21.578125 7 21 L 5 21 C 5 20.996094 5.035156 20.976563 4.9375 21.09375 C 4.839844 21.210938 4.605469 21.402344 4.34375 21.625 C 3.820313 22.070313 3 22.816406 3 24 L 3 25 L 7.625 25 C 8.828125 25 9.488281 24.429688 9.875 24 L 13.4375 24 C 15.324219 24 16.613281 23.578125 17.46875 23.25 C 17.535156 23.382813 17.503906 23.390625 17.59375 23.53125 C 17.996094 24.175781 18.761719 25 19.9375 25 L 25 25 L 25 24 C 25 22.648438 24.179688 21.730469 23.625 21.28125 C 23.347656 21.054688 23.144531 20.90625 23.0625 20.8125 C 22.980469 20.71875 23 20.75 23 20.65625 C 23 19.425781 23.246094 18.761719 23.59375 18.28125 C 23.941406 17.800781 24.441406 17.46875 25.125 17.125 C 26.492188 16.433594 28.601563 15.75 29.875 13.46875 L 30 13.25 L 30 12.96875 C 30 11.402344 29.457031 10.078125 28.5 9.21875 C 27.542969 8.359375 26.257813 8 24.90625 8 C 23.308594 8 22.179688 8.953125 21.4375 10 C 21.261719 10.246094 21.101563 10.523438 20.9375 10.78125 C 20.539063 10.488281 20.027344 10.238281 19.40625 10.125 C 18.589844 8.761719 16.898438 7.339844 14.15625 7.09375 C 13.902344 7.070313 13.644531 7.0625 13.375 7.0625 Z M 13.375 9.03125 C 16.214844 9.046875 17.558594 10.628906 17.90625 11.40625 L 18.1875 12 L 18.8125 12 C 19.464844 12 19.675781 12.21875 19.84375 12.4375 C 19.855469 12.453125 19.863281 12.457031 19.875 12.46875 C 19.671875 12.769531 19.429688 13.074219 19.1875 13.375 C 17.332031 15.648438 14.085938 17.960938 5.21875 18 C 5.246094 17.957031 5.257813 17.875 5.28125 17.84375 C 5.398438 17.691406 5.375 17.71875 5.375 17.71875 L 6 17.46875 L 6 16.78125 C 6 16.359375 5.925781 15.925781 5.9375 15.28125 C 5.949219 14.636719 6.050781 13.882813 6.3125 13.125 C 6.832031 11.609375 7.941406 10.0625 11.15625 9.3125 C 11.976563 9.121094 12.71875 9.027344 13.375 9.03125 Z M 25.4375 10.75 C 24.886719 10.75 24.4375 11.199219 24.4375 11.75 C 24.4375 12.300781 24.886719 12.75 25.4375 12.75 C 25.988281 12.75 26.4375 12.300781 26.4375 11.75 C 26.4375 11.199219 25.988281 10.75 25.4375 10.75 Z"/></svg>