<svg xmlns="http://www.w3.org/2000/svg" width="128" height="128" viewBox="0 0 128 128">
  <title>VIDEO LESSON</title>
  <g>
    <path d="M126.25,87.778h-8.681V20.609a1.75,1.75,0,0,0-1.75-1.75H12.181a1.75,1.75,0,0,0-1.75,1.75V87.778H1.75A1.749,1.749,0,0,0,0,89.528V98.3a10.858,10.858,0,0,0,10.846,10.846H117.154A10.858,10.858,0,0,0,128,98.3V89.528A1.749,1.749,0,0,0,126.25,87.778ZM13.931,22.359H114.069V87.778H13.931ZM45.446,91.278H82.554V95.86a.85.85,0,0,1-.85.849H46.3a.85.85,0,0,1-.85-.849ZM124.5,98.3a7.354,7.354,0,0,1-7.346,7.346H10.846A7.354,7.354,0,0,1,3.5,98.3V91.278H41.946V95.86a4.354,4.354,0,0,0,4.35,4.349H81.7a4.355,4.355,0,0,0,4.35-4.349V91.278H124.5Z"/>
    <path d="M109.569,81.527V28.609a1.75,1.75,0,0,0-1.75-1.75H20.181a1.75,1.75,0,0,0-1.75,1.75V81.527a1.749,1.749,0,0,0,1.75,1.75h87.638A1.749,1.749,0,0,0,109.569,81.527Zm-3.5-1.75H21.931V30.359h84.138Z"/>
    <path d="M64,72.818a17.75,17.75,0,1,0-17.75-17.75A17.77,17.77,0,0,0,64,72.818Zm0-32a14.25,14.25,0,1,1-14.25,14.25A14.267,14.267,0,0,1,64,40.818Z"/>
    <path d="M58.707,62.932a1.753,1.753,0,0,0,1.7.077l12.75-6.375a1.75,1.75,0,0,0,0-3.131l-12.75-6.375a1.75,1.75,0,0,0-2.532,1.565v12.75A1.75,1.75,0,0,0,58.707,62.932Zm2.67-11.407,7.087,3.543-7.087,3.544Z"/>
  </g>
</svg>
